{
  "accessors": [
    {
      "bufferView": 2,
      "componentType": 5126,
      "count": 1815,
      "max": [
        18.72130012512207,
        16.013198852539063,
        24.16590118408203
      ],
      "min": [
        0.0,
        0.0,
        1.6449999809265137
      ],
      "type": "VEC3"
    },
    {
      "bufferView": 2,
      "byteOffset": 21780,
      "componentType": 5126,
      "count": 1815,
      "max": [
        0.9975497126579285,
        0.9994179010391235,
        0.9992671012878418
      ],
      "min": [
        -0.9993332624435425,
        -0.9987831711769104,
        -0.9998399615287781
      ],
      "type": "VEC3"
    },
    {
      "bufferView": 3,
      "componentType": 5126,
      "count": 1815,
      "max": [
        0.9997270107269287,
        0.999818742275238,
        0.9812760949134827,
        1.0
      ],
      "min": [
        -0.9590690732002258,
        -0.9988642930984497,
        -0.9994403123855591,
        -1.0
      ],
      "type": "VEC4"
    },
    {
      "bufferView": 1,
      "componentType": 5126,
      "count": 1815,
      "max": [
        0.9886999726295471,
        0.994700014591217
      ],
      "min": [
        0.00570000009611249,
        0.01489999983459711
      ],
      "type": "VEC2"
    },
    {
      "bufferView": 0,
      "componentType": 5125,
      "count": 8913,
      "type": "SCALAR"
    },
    {
      "bufferView": 2,
      "byteOffset": 43560,
      "componentType": 5126,
      "count": 1295,
      "max": [
        18.89889907836914,
        15.265999794006348,
        17.000699996948242
      ],
      "min": [
        0.11310005187988281,
        0.1388998031616211,
        3.339200019836426
      ],
      "type": "VEC3"
    },
    {
      "bufferView": 2,
      "byteOffset": 59100,
      "componentType": 5126,
      "count": 1295,
      "max": [
        0.9997444748878479,
        0.9996351599693298,
        0.9987340569496155
      ],
      "min": [
        -0.9996626973152161,
        -0.9996396899223328,
        -0.9900540113449097
      ],
      "type": "VEC3"
    },
    {
      "bufferView": 3,
      "byteOffset": 29040,
      "componentType": 5126,
      "count": 1295,
      "max": [
        0.9986295700073242,
        0.9996638894081116,
        0.9310828447341919,
        1.0
      ],
      "min": [
        -0.9701918959617615,
        -0.9910810589790344,
        -0.9196816682815552,
        -1.0
      ],
      "type": "VEC4"
    },
    {
      "bufferView": 1,
      "byteOffset": 14520,
      "componentType": 5126,
      "count": 1295,
      "max": [
        0.9934999942779541,
        0.5081999897956848
      ],
      "min": [
        0.13120000064373016,
        0.005900000222027302
      ],
      "type": "VEC2"
    },
    {
      "bufferView": 0,
      "byteOffset": 35652,
      "componentType": 5125,
      "count": 6933,
      "type": "SCALAR"
    },
    {
      "bufferView": 2,
      "byteOffset": 74640,
      "componentType": 5126,
      "count": 729,
      "max": [
        18.752399444580078,
        15.201399803161621,
        8.837300300598145
      ],
      "min": [
        0.3437995910644531,
        1.1826000213623047,
        0.0
      ],
      "type": "VEC3"
    },
    {
      "bufferView": 2,
      "byteOffset": 83388,
      "componentType": 5126,
      "count": 729,
      "max": [
        0.9996657967567444,
        0.9984008073806763,
        0.9959485530853271
      ],
      "min": [
        -0.994621217250824,
        -0.9999492168426514,
        -1.0
      ],
      "type": "VEC3"
    },
    {
      "bufferView": 3,
      "byteOffset": 49760,
      "componentType": 5126,
      "count": 729,
      "max": [
        0.998063325881958,
        0.9989981651306152,
        0.9996405839920044,
        1.0
      ],
      "min": [
        -0.9937070608139038,
        -0.9949864149093628,
        -0.9992382526397705,
        1.0
      ],
      "type": "VEC4"
    },
    {
      "bufferView": 1,
      "byteOffset": 24880,
      "componentType": 5126,
      "count": 729,
      "max": [
        0.552299976348877,
        0.9922999739646912
      ],
      "min": [
        0.03099999949336052,
        0.3646000027656555
      ],
      "type": "VEC2"
    },
    {
      "bufferView": 0,
      "byteOffset": 63384,
      "componentType": 5125,
      "count": 3870,
      "type": "SCALAR"
    }
  ],
  "asset": {
    "extras": {
      "author": "andrea.notarstefano (https://sketchfab.com/andrea.notarstefano)",
      "license": "CC-BY-4.0 (http://creativecommons.org/licenses/by/4.0/)",
      "source": "https://sketchfab.com/3d-models/wooden-buddha-statuette-675ce7f7a286400d84deb3bcaa38a93e",
      "title": "Wooden Buddha statuette"
    },
    "generator": "Sketchfab-12.68.0",
    "version": "2.0"
  },
  "bufferViews": [
    {
      "buffer": 0,
      "byteLength": 78864,
      "name": "floatBufferViews",
      "target": 34963
    },
    {
      "buffer": 0,
      "byteLength": 30712,
      "byteOffset": 78864,
      "byteStride": 8,
      "name": "floatBufferViews",
      "target": 34962
    },
    {
      "buffer": 0,
      "byteLength": 92136,
      "byteOffset": 109576,
      "byteStride": 12,
      "name": "floatBufferViews",
      "target": 34962
    },
    {
      "buffer": 0,
      "byteLength": 61424,
      "byteOffset": 201712,
      "byteStride": 16,
      "name": "floatBufferViews",
      "target": 34962
    }
  ],
  "buffers": [
    {
      "byteLength": 263136,
      "uri": "scene.bin"
    }
  ],
  "images": [
    {
      "uri": "textures/Scene_-_Root_baseColor.jpg"
    },
    {
      "uri": "textures/Scene_-_Root_metallicRoughness.jpg"
    },
    {
      "uri": "textures/Scene_-_Root_normal.jpg"
    }
  ],
  "materials": [
    {
      "doubleSided": true,
      "name": "Scene_-_Root",
      "normalTexture": {
        "index": 2
      },
      "occlusionTexture": {
        "index": 1
      },
      "pbrMetallicRoughness": {
        "baseColorTexture": {
          "index": 0
        },
        "metallicFactor": 0.0,
        "metallicRoughnessTexture": {
          "index": 1
        }
      }
    }
  ],
  "meshes": [
    {
      "name": "Object_0",
      "primitives": [
        {
          "attributes": {
            "NORMAL": 1,
            "POSITION": 0,
            "TANGENT": 2,
            "TEXCOORD_0": 3
          },
          "indices": 4,
          "material": 0,
          "mode": 4
        }
      ]
    },
    {
      "name": "Object_1",
      "primitives": [
        {
          "attributes": {
            "NORMAL": 6,
            "POSITION": 5,
            "TANGENT": 7,
            "TEXCOORD_0": 8
          },
          "indices": 9,
          "material": 0,
          "mode": 4
        }
      ]
    },
    {
      "name": "Object_2",
      "primitives": [
        {
          "attributes": {
            "NORMAL": 11,
            "POSITION": 10,
            "TANGENT": 12,
            "TEXCOORD_0": 13
          },
          "indices": 14,
          "material": 0,
          "mode": 4
        }
      ]
    }
  ],
  "nodes": [
    {
      "children": [
        1
      ],
      "matrix": [
        1.0,
        0.0,
        0.0,
        0.0,
        0.0,
        2.220446049250313e-16,
        -1.0,
        0.0,
        0.0,
        1.0,
        2.220446049250313e-16,
        0.0,
        0.0,
        0.0,
        0.0,
        1.0
      ],
      "name": "Sketchfab_model"
    },
    {
      "children": [
        2
      ],
      "matrix": [
        1.0,
        0.0,
        0.0,
        0.0,
        0.0,
        1.0,
        0.0,
        0.0,
        0.0,
        0.0,
        1.0,
        0.0,
        -9.07699966430664,
        -7.633399963378906,
        -0.00019999999494757503,
        1.0
      ],
      "name": "modello buddha.obj.cleaner.materialmerger.gles"
    },
    {
      "children": [
        3,
        4,
        5
      ],
      "name": "Object_2"
    },
    {
      "mesh": 0,
      "name": "Object_3"
    },
    {
      "mesh": 1,
      "name": "Object_4"
    },
    {
      "mesh": 2,
      "name": "Object_5"
    }
  ],
  "samplers": [
    {
      "magFilter": 9729,
      "minFilter": 9987,
      "wrapS": 10497,
      "wrapT": 10497
    }
  ],
  "scene": 0,
  "scenes": [
    {
      "name": "Sketchfab_Scene",
      "nodes": [
        0
      ]
    }
  ],
  "textures": [
    {
      "sampler": 0,
      "source": 0
    },
    {
      "sampler": 0,
      "source": 1
    },
    {
      "sampler": 0,
      "source": 2
    }
  ]
}
